<svg width="137" height="37" viewBox="0 0 137 37" fill="none" xmlns="http://www.w3.org/2000/svg">
<path d="M67.0073 31H65.2554L64.896 29.2368C64.6714 30.008 64.2633 30.5246 63.6719 30.7866C63.0879 31.0412 62.2306 31.1685 61.1001 31.1685C60.3514 31.1685 59.7375 31.0973 59.2583 30.9551C58.7791 30.8053 58.3973 30.5583 58.1128 30.2139C57.8283 29.8695 57.6299 29.4502 57.5176 28.9561C57.4128 28.4544 57.3604 27.8105 57.3604 27.0244C57.3604 26.6725 57.4202 26.3581 57.54 26.0811C57.6673 25.804 57.8358 25.5682 58.0454 25.3735C58.2625 25.1789 58.547 25.0104 58.8989 24.8682C59.2583 24.7259 59.6289 24.6136 60.0107 24.5312C60.3926 24.4489 60.853 24.3853 61.3921 24.3403C61.9386 24.2879 62.4702 24.2542 62.9868 24.2393C63.5034 24.2243 64.1061 24.2168 64.7949 24.2168V20.8813C64.7949 20.4995 64.6152 20.2375 64.2559 20.0952C63.8965 19.9455 63.2563 19.8706 62.3354 19.8706C61.6916 19.8706 61.2087 19.8856 60.8867 19.9155C60.5648 19.9455 60.3177 20.0353 60.1455 20.1851C59.9808 20.3273 59.8835 20.4696 59.8535 20.6118C59.8311 20.7541 59.8161 21.0199 59.8086 21.4092C59.8011 21.5514 59.7974 21.6637 59.7974 21.7461L58.0791 21.6787C58.0641 21.5589 58.0566 21.383 58.0566 21.1509C58.0566 20.6493 58.1278 20.2262 58.27 19.8818C58.4198 19.5299 58.6107 19.2567 58.8428 19.062C59.0749 18.8599 59.3931 18.7026 59.7974 18.5903C60.2017 18.478 60.6022 18.4069 60.999 18.377C61.3958 18.347 61.89 18.332 62.4814 18.332C63.3799 18.332 64.1099 18.4032 64.6714 18.5454C65.2329 18.6802 65.6934 18.9272 66.0527 19.2866C66.4121 19.646 66.6592 20.1064 66.7939 20.668C66.9362 21.222 67.0073 21.9482 67.0073 22.8467V31ZM64.7949 27.4736V25.5532C63.32 25.5532 62.1857 25.6094 61.3921 25.7217C60.5985 25.834 60.0669 25.9912 59.7974 26.1934C59.5353 26.388 59.4043 26.665 59.4043 27.0244C59.4043 27.0394 59.4043 27.0618 59.4043 27.0918C59.4043 28.2298 59.4979 28.9373 59.6851 29.2144C59.8722 29.4914 60.445 29.6299 61.4033 29.6299C62.2194 29.6299 62.882 29.5326 63.3911 29.3379C63.9002 29.1432 64.2521 28.8962 64.4468 28.5967C64.6489 28.2897 64.765 27.9154 64.7949 27.4736ZM72.7236 31H70.5112V14.3115L72.7236 14.1318V31ZM78.5522 31H76.3398V18.6802H78.5522V31ZM78.5522 13.9185V15.8613H76.3398V13.9185H78.5522ZM91.1753 31H89.4233L89.064 29.2368C88.8394 30.008 88.4313 30.5246 87.8398 30.7866C87.2559 31.0412 86.3986 31.1685 85.2681 31.1685C84.5194 31.1685 83.9054 31.0973 83.4263 30.9551C82.9471 30.8053 82.5653 30.5583 82.2808 30.2139C81.9963 29.8695 81.7979 29.4502 81.6855 28.9561C81.5807 28.4544 81.5283 27.8105 81.5283 27.0244C81.5283 26.6725 81.5882 26.3581 81.708 26.0811C81.8353 25.804 82.0037 25.5682 82.2134 25.3735C82.4305 25.1789 82.715 25.0104 83.0669 24.8682C83.4263 24.7259 83.7969 24.6136 84.1787 24.5312C84.5605 24.4489 85.021 24.3853 85.5601 24.3403C86.1066 24.2879 86.6382 24.2542 87.1548 24.2393C87.6714 24.2243 88.2741 24.2168 88.9629 24.2168V20.8813C88.9629 20.4995 88.7832 20.2375 88.4238 20.0952C88.0645 19.9455 87.4243 19.8706 86.5034 19.8706C85.8595 19.8706 85.3766 19.8856 85.0547 19.9155C84.7327 19.9455 84.4857 20.0353 84.3135 20.1851C84.1488 20.3273 84.0514 20.4696 84.0215 20.6118C83.999 20.7541 83.984 21.0199 83.9766 21.4092C83.9691 21.5514 83.9653 21.6637 83.9653 21.7461L82.2471 21.6787C82.2321 21.5589 82.2246 21.383 82.2246 21.1509C82.2246 20.6493 82.2957 20.2262 82.438 19.8818C82.5877 19.5299 82.7786 19.2567 83.0107 19.062C83.2428 18.8599 83.561 18.7026 83.9653 18.5903C84.3696 18.478 84.7702 18.4069 85.167 18.377C85.5638 18.347 86.0579 18.332 86.6494 18.332C87.5479 18.332 88.2778 18.4032 88.8394 18.5454C89.4009 18.6802 89.8613 18.9272 90.2207 19.2866C90.5801 19.646 90.8271 20.1064 90.9619 20.668C91.1042 21.222 91.1753 21.9482 91.1753 22.8467V31ZM88.9629 27.4736V25.5532C87.488 25.5532 86.3537 25.6094 85.5601 25.7217C84.7664 25.834 84.2349 25.9912 83.9653 26.1934C83.7033 26.388 83.5723 26.665 83.5723 27.0244C83.5723 27.0394 83.5723 27.0618 83.5723 27.0918C83.5723 28.2298 83.6659 28.9373 83.853 29.2144C84.0402 29.4914 84.613 29.6299 85.5713 29.6299C86.3874 29.6299 87.05 29.5326 87.5591 29.3379C88.0682 29.1432 88.4201 28.8962 88.6147 28.5967C88.8169 28.2897 88.9329 27.9154 88.9629 27.4736ZM104.371 31H102.35L102.136 29.4502C101.68 30.5957 100.485 31.1685 98.5537 31.1685C98.0371 31.1685 97.5729 31.1348 97.1611 31.0674C96.7568 31 96.4049 30.884 96.1055 30.7192C95.8135 30.5545 95.5627 30.3861 95.353 30.2139C95.1434 30.0342 94.9674 29.7796 94.8252 29.4502C94.6904 29.1133 94.5819 28.8101 94.4995 28.5405C94.4246 28.2635 94.3685 27.8817 94.3311 27.395C94.2936 26.9084 94.2712 26.4854 94.2637 26.126C94.2562 25.7591 94.2524 25.265 94.2524 24.6436C94.2524 24.0371 94.2599 23.513 94.2749 23.0713C94.2974 22.6296 94.3348 22.1916 94.3872 21.7573C94.4471 21.3231 94.522 20.96 94.6118 20.668C94.7091 20.3685 94.8364 20.0802 94.9937 19.8032C95.1509 19.5262 95.3381 19.3053 95.5552 19.1406C95.7798 18.9684 96.0456 18.8187 96.3525 18.6914C96.6595 18.5566 97.0114 18.4631 97.4082 18.4106C97.805 18.3582 98.2542 18.332 98.7559 18.332C99.7217 18.332 100.47 18.4631 101.002 18.7251C101.541 18.9797 101.927 19.3877 102.159 19.9492V13.9409L104.371 13.7612V31ZM102.159 28.1362V21.5889C102.159 20.9375 101.957 20.492 101.552 20.2524C101.148 20.0054 100.388 19.8818 99.2725 19.8818C98.404 19.8818 97.7601 19.9455 97.3408 20.0728C96.9964 20.1776 96.7643 20.4883 96.6445 21.0049C96.5247 21.514 96.4648 22.2028 96.4648 23.0713C96.4648 24.3366 96.4873 26.1073 96.5322 28.3833C96.5697 28.8774 96.7681 29.2106 97.1274 29.3828C97.4943 29.5475 98.2093 29.6299 99.2725 29.6299C100.321 29.6299 101.051 29.5251 101.462 29.3154C101.882 29.1058 102.114 28.7127 102.159 28.1362ZM112.524 29.6187C113.588 29.5962 114.325 29.5176 114.737 29.3828C115.156 29.248 115.366 28.9823 115.366 28.5854C115.448 27.5148 115.489 26.2757 115.489 24.8682C115.489 24.404 115.471 23.7414 115.433 22.8804C115.396 22.0119 115.377 21.368 115.377 20.9487C115.377 20.8215 115.354 20.7054 115.31 20.6006C115.272 20.4958 115.205 20.4097 115.107 20.3423C115.018 20.2674 114.924 20.2038 114.827 20.1514C114.737 20.099 114.606 20.0578 114.434 20.0278C114.269 19.9979 114.127 19.9717 114.007 19.9492C113.895 19.9268 113.73 19.9118 113.513 19.9043C113.303 19.8968 113.138 19.8931 113.019 19.8931C112.906 19.8931 112.738 19.8931 112.513 19.8931C112.289 19.8931 112.116 19.8931 111.997 19.8931C111.884 19.8931 111.72 19.8968 111.502 19.9043C111.293 19.9118 111.128 19.9268 111.008 19.9492C110.896 19.9717 110.754 19.9979 110.582 20.0278C110.417 20.0578 110.286 20.099 110.188 20.1514C110.099 20.2038 110.005 20.2674 109.908 20.3423C109.818 20.4097 109.75 20.4958 109.706 20.6006C109.668 20.7054 109.649 20.8215 109.649 20.9487C109.649 21.368 109.631 22.0119 109.593 22.8804C109.556 23.7414 109.537 24.404 109.537 24.8682C109.537 26.2757 109.578 27.5148 109.661 28.5854C109.661 28.9823 109.878 29.2555 110.312 29.4053C110.754 29.5475 111.491 29.6187 112.524 29.6187ZM112.502 31.1685C111.671 31.1685 110.978 31.1348 110.424 31.0674C109.87 31 109.391 30.854 108.987 30.6294C108.59 30.3973 108.287 30.154 108.077 29.8994C107.868 29.6374 107.703 29.2293 107.583 28.6753C107.463 28.1138 107.388 27.5597 107.358 27.0132C107.336 26.4666 107.325 25.7067 107.325 24.7334C107.325 24.0072 107.332 23.4007 107.347 22.9141C107.37 22.4274 107.415 21.952 107.482 21.4878C107.549 21.0161 107.632 20.638 107.729 20.3535C107.834 20.0615 107.98 19.7882 108.167 19.5337C108.362 19.2716 108.579 19.0732 108.818 18.9385C109.058 18.8037 109.361 18.6877 109.728 18.5903C110.102 18.4855 110.507 18.4181 110.941 18.3882C111.383 18.3507 111.907 18.332 112.513 18.332C113.12 18.332 113.64 18.3507 114.074 18.3882C114.516 18.4181 114.92 18.4855 115.287 18.5903C115.661 18.6877 115.968 18.8037 116.208 18.9385C116.448 19.0732 116.661 19.2716 116.848 19.5337C117.043 19.7882 117.189 20.0615 117.286 20.3535C117.391 20.638 117.477 21.0161 117.544 21.4878C117.612 21.952 117.653 22.4274 117.668 22.9141C117.69 23.4007 117.702 24.0072 117.702 24.7334C117.702 25.7067 117.687 26.4666 117.657 27.0132C117.634 27.5597 117.563 28.1138 117.443 28.6753C117.324 29.2293 117.155 29.6374 116.938 29.8994C116.728 30.1615 116.421 30.4048 116.017 30.6294C115.62 30.854 115.145 31 114.591 31.0674C114.037 31.1348 113.34 31.1685 112.502 31.1685ZM129.729 27.5859C129.729 28.3047 129.651 28.8962 129.494 29.3604C129.336 29.8171 129.074 30.1802 128.708 30.4497C128.348 30.7192 127.906 30.9064 127.382 31.0112C126.866 31.116 126.211 31.1685 125.417 31.1685C124.953 31.1685 124.578 31.1647 124.294 31.1572C124.017 31.1497 123.695 31.131 123.328 31.1011C122.961 31.0711 122.669 31.0262 122.452 30.9663C122.235 30.8989 121.999 30.8128 121.745 30.708C121.498 30.5957 121.303 30.4572 121.161 30.2925C121.018 30.1203 120.884 29.9181 120.756 29.686C120.629 29.4539 120.539 29.1807 120.487 28.8662C120.434 28.5443 120.408 28.1812 120.408 27.7769L122.149 27.3276C122.216 28.1812 122.295 28.7202 122.385 28.9448C122.52 29.2518 122.8 29.4465 123.227 29.5288C123.549 29.5962 124.227 29.6299 125.26 29.6299C125.881 29.6299 126.342 29.6037 126.641 29.5513C126.948 29.4914 127.154 29.3828 127.259 29.2256C127.558 28.9785 127.708 28.1362 127.708 26.6987C127.708 26.4816 127.663 26.2982 127.573 26.1484C127.483 25.9912 127.375 25.8752 127.248 25.8003C127.12 25.7179 126.941 25.6506 126.708 25.5981C126.484 25.5382 126.278 25.5008 126.091 25.4858C125.911 25.4634 125.672 25.4372 125.372 25.4072C125.073 25.3773 124.833 25.3511 124.653 25.3286C124.107 25.2687 123.661 25.2126 123.317 25.1602C122.972 25.1003 122.624 25.0142 122.272 24.9019C121.921 24.7896 121.644 24.651 121.441 24.4863C121.247 24.3216 121.067 24.1082 120.902 23.8462C120.738 23.5841 120.622 23.2697 120.554 22.9028C120.487 22.536 120.453 22.098 120.453 21.5889C120.453 21.0498 120.509 20.5931 120.622 20.2188C120.734 19.8444 120.899 19.5337 121.116 19.2866C121.333 19.0396 121.629 18.8486 122.003 18.7139C122.385 18.5716 122.812 18.4743 123.283 18.4219C123.755 18.362 124.331 18.332 125.013 18.332C125.439 18.332 125.788 18.3395 126.057 18.3545C126.334 18.362 126.634 18.3882 126.956 18.4331C127.285 18.4705 127.551 18.5267 127.753 18.6016C127.955 18.6764 128.157 18.7812 128.359 18.916C128.569 19.0508 128.73 19.2192 128.842 19.4214C128.955 19.616 129.044 19.8556 129.112 20.1401C129.187 20.4246 129.224 20.7503 129.224 21.1172L127.719 21.5776C127.689 21.2856 127.659 21.0573 127.629 20.8926C127.607 20.7204 127.551 20.5632 127.461 20.4209C127.371 20.2786 127.278 20.1776 127.18 20.1177C127.083 20.0578 126.914 20.0054 126.675 19.9604C126.443 19.9155 126.207 19.8893 125.967 19.8818C125.728 19.8743 125.383 19.8706 124.934 19.8706C123.976 19.8706 123.324 19.9679 122.98 20.1626C122.643 20.3498 122.475 20.6605 122.475 21.0947V22.2402C122.475 22.7344 122.621 23.0488 122.913 23.1836C123.212 23.3109 124.006 23.4569 125.293 23.6216C125.428 23.644 125.529 23.659 125.597 23.6665C126.113 23.7264 126.521 23.7826 126.821 23.835C127.128 23.8874 127.45 23.9585 127.787 24.0483C128.124 24.1307 128.378 24.2318 128.55 24.3516C128.73 24.4639 128.906 24.6099 129.078 24.7896C129.258 24.9692 129.385 25.1901 129.46 25.4521C129.542 25.7142 129.606 26.0174 129.651 26.3618C129.703 26.7062 129.729 27.1143 129.729 27.5859Z" fill="white"/>
<path d="M76 33.5C76 33.2239 76.2239 33 76.5 33H78.5C78.7761 33 79 33.2239 79 33.5V35.5C79 35.7761 78.7761 36 78.5 36H76.5C76.2239 36 76 35.7761 76 35.5V33.5Z" fill="#00A14C"/>
<path d="M76 13.5C76 13.2239 76.2239 13 76.5 13H78.5C78.7761 13 79 13.2239 79 13.5V15.5C79 15.7761 78.7761 16 78.5 16H76.5C76.2239 16 76 15.7761 76 15.5V13.5Z" fill="#00A9C9"/>
<path d="M15.1479 14.152C15.6026 14.0493 16.0426 13.712 16.4679 13.14C16.8932 12.568 17.1059 11.8567 17.1059 11.006C17.1059 10.1407 16.7979 9.50999 16.1819 9.11399C15.5806 8.71799 14.6492 8.51999 13.3879 8.51999C11.5106 8.51999 9.97056 8.87933 8.7679 9.59799C7.5799 10.3167 6.9859 11.0867 6.9859 11.908C6.9859 12.3333 7.14723 12.678 7.4699 12.942C7.79256 13.1913 8.11523 13.36 8.4379 13.448C8.3939 14.02 8.1959 14.5627 7.8439 15.076C7.2719 14.9733 6.7439 14.6727 6.2599 14.174C5.7759 13.6607 5.5339 13.0007 5.5339 12.194C5.5339 10.7567 6.33323 9.56866 7.9319 8.62999C9.53056 7.67666 11.5986 7.19999 14.1359 7.19999C16.0866 7.19999 17.6339 7.50799 18.7779 8.12399C19.9219 8.73999 20.4939 9.68599 20.4939 10.962C20.4939 11.9593 20.1492 12.788 19.4599 13.448C18.7706 14.108 17.8906 14.6067 16.8199 14.944C17.8906 15.1053 18.7412 15.5087 19.3719 16.154C20.5452 15.846 21.6306 15.692 22.6279 15.692L23.7059 15.758C23.7352 15.8607 23.7499 15.9633 23.7499 16.066C23.7499 16.5793 23.6766 16.9827 23.5299 17.276C23.1339 17.188 22.5986 17.144 21.9239 17.144C21.2639 17.144 20.6699 17.2247 20.1419 17.386C20.3326 17.9287 20.4279 18.508 20.4279 19.124C20.4279 20.62 19.9806 21.852 19.0859 22.82C18.1912 23.788 17.1646 24.272 16.0059 24.272C15.2139 24.272 14.5539 24.03 14.0259 23.546C13.4979 23.0767 13.2339 22.3947 13.2339 21.5C13.2339 20.5907 13.5639 19.7327 14.2239 18.926C14.8986 18.1047 15.7199 17.4593 16.6879 16.99C16.3066 16.0073 15.6246 15.516 14.6419 15.516H14.4879C14.3999 15.1347 14.4219 14.702 14.5539 14.218C14.7739 14.218 14.9719 14.196 15.1479 14.152ZM10.8799 11.754C10.8799 11.4753 10.8432 11.27 10.7699 11.138C10.7112 11.006 10.5719 10.8153 10.3519 10.566L10.3739 10.412C11.1512 9.95733 12.1192 9.72999 13.2779 9.72999C13.7326 9.72999 14.0699 9.76666 14.2899 9.83999C14.3632 9.98666 14.3999 10.302 14.3999 10.786C14.3999 11.2553 14.0186 13.0227 13.2559 16.088C12.5079 19.1387 12.0679 21.412 11.9359 22.908C11.0706 23.1573 10.1099 23.282 9.0539 23.282C8.80456 23.282 8.62123 23.26 8.5039 23.216C8.57723 22.292 8.9879 20.3707 9.7359 17.452C10.4986 14.5333 10.8799 12.634 10.8799 11.754ZM15.4779 22.402C15.8739 22.402 16.2259 22.0427 16.5339 21.324C16.8419 20.5907 16.9959 19.7693 16.9959 18.86L16.9739 18.486C16.4312 18.6913 15.9106 19.0653 15.4119 19.608C14.9279 20.1507 14.6859 20.73 14.6859 21.346C14.6859 21.7127 14.7666 21.984 14.9279 22.16C15.1039 22.3213 15.2872 22.402 15.4779 22.402ZM25.3664 23.414C24.3544 23.414 23.5624 23.062 22.9904 22.358C22.4184 21.6393 22.1324 20.642 22.1324 19.366C22.1324 17.738 22.565 16.3373 23.4304 15.164C24.3104 13.9907 25.5204 13.404 27.0604 13.404L27.8524 13.448C28.1017 13.316 28.3804 13.25 28.6884 13.25C29.847 13.25 30.4264 14.3427 30.4264 16.528C31.0277 16.4987 31.6364 16.418 32.2524 16.286L32.6044 16.198L32.7364 17.056C32.2524 17.2613 31.5997 17.4447 30.7784 17.606L30.3384 17.694C30.0597 19.234 29.495 20.576 28.6444 21.72C27.7937 22.8493 26.701 23.414 25.3664 23.414ZM26.5544 21.522C27.1704 21.522 27.7204 21.126 28.2044 20.334C28.703 19.542 29.0477 18.706 29.2384 17.826C27.669 17.826 26.8844 17.2393 26.8844 16.066C26.8844 15.5967 26.9797 15.1567 27.1704 14.746L27.2804 14.526C27.2217 14.4967 27.1484 14.482 27.0604 14.482C26.9724 14.482 26.9064 14.4967 26.8624 14.526C26.4957 14.7607 26.151 15.3107 25.8284 16.176C25.5057 17.0413 25.3444 18.0313 25.3444 19.146C25.3444 20.73 25.7477 21.522 26.5544 21.522ZM32.9823 23.414C32.4837 23.414 32.0657 23.2453 31.7283 22.908C31.4057 22.5707 31.2443 22.1013 31.2443 21.5C31.2443 20.884 31.6037 18.9407 32.3223 15.67C33.0557 12.3847 33.4223 10.016 33.4223 8.56399L33.2903 7.59599C34.4343 7.19999 35.505 7.00199 36.5023 7.00199C36.649 7.20733 36.7223 7.56666 36.7223 8.07999C36.7223 9.25333 36.3483 11.5267 35.6003 14.9C34.867 18.2587 34.5003 20.2167 34.5003 20.774C34.5003 21.3167 34.5663 21.588 34.6983 21.588L36.2383 21.038L36.6343 21.808C36.1357 22.204 35.527 22.5707 34.8083 22.908C34.1043 23.2453 33.4957 23.414 32.9823 23.414ZM43.6881 14.042C43.7174 14.0127 43.7981 13.822 43.9301 13.47C44.6194 13.47 45.5434 13.6753 46.7021 14.086C46.3354 15.3033 46.0421 16.5793 45.8221 17.914C45.6021 19.234 45.4921 20.18 45.4921 20.752C45.4921 21.3093 45.5508 21.588 45.6681 21.588C45.7561 21.588 46.0788 21.4487 46.6361 21.17L46.9001 21.038L47.2961 21.808C47.1641 21.9253 46.9881 22.072 46.7681 22.248C46.5628 22.424 46.1668 22.666 45.5801 22.974C44.9934 23.2673 44.4654 23.414 43.9961 23.414C43.0868 23.414 42.5588 23.0033 42.4121 22.182C41.4734 23.0033 40.6228 23.414 39.8601 23.414C39.1121 23.414 38.4741 23.1207 37.9461 22.534C37.4328 21.9473 37.1761 21.0233 37.1761 19.762C37.1761 17.7967 37.5794 16.2493 38.3861 15.12C39.1928 13.976 40.1681 13.404 41.3121 13.404C42.1334 13.404 42.9254 13.6167 43.6881 14.042ZM41.1801 21.544C41.5321 21.544 41.9281 21.4047 42.3681 21.126C42.4708 19.058 42.8154 17.012 43.4021 14.988C42.9621 14.7973 42.5881 14.702 42.2801 14.702C41.7521 14.702 41.2974 15.2227 40.9161 16.264C40.5494 17.2907 40.3661 18.4273 40.3661 19.674C40.3661 20.9207 40.6374 21.544 41.1801 21.544ZM39.0021 11.468C39.2074 9.38533 39.9481 8.34399 41.2241 8.34399C41.7228 8.34399 42.4488 8.47599 43.4021 8.73999C44.3701 8.98933 45.0521 9.11399 45.4481 9.11399C45.8441 9.11399 46.1228 9.06999 46.2841 8.98199C46.4454 8.89399 46.6288 8.67399 46.8341 8.32199L47.5161 8.45399C47.4574 9.12866 47.3401 9.69333 47.1641 10.148C46.8268 11.0133 46.1961 11.446 45.2721 11.446C44.9348 11.446 44.3041 11.3213 43.3801 11.072C42.4708 10.808 41.7888 10.676 41.3341 10.676C40.8941 10.676 40.5641 10.742 40.3441 10.874C40.1388 10.9913 39.9261 11.2407 39.7061 11.622L39.0021 11.468ZM50.7824 23.414C49.7704 23.414 48.9784 23.062 48.4064 22.358C47.8344 21.6393 47.5484 20.642 47.5484 19.366C47.5484 17.738 47.9811 16.3373 48.8464 15.164C49.7264 13.9907 50.9364 13.404 52.4764 13.404L53.2684 13.448C53.5177 13.316 53.7964 13.25 54.1044 13.25C55.2631 13.25 55.8424 14.3427 55.8424 16.528C56.4437 16.4987 57.0524 16.418 57.6684 16.286L58.0204 16.198L58.1524 17.056C57.6684 17.2613 57.0157 17.4447 56.1944 17.606L55.7544 17.694C55.4757 19.234 54.9111 20.576 54.0604 21.72C53.2097 22.8493 52.1171 23.414 50.7824 23.414ZM51.9704 21.522C52.5864 21.522 53.1364 21.126 53.6204 20.334C54.1191 19.542 54.4637 18.706 54.6544 17.826C53.0851 17.826 52.3004 17.2393 52.3004 16.066C52.3004 15.5967 52.3957 15.1567 52.5864 14.746L52.6964 14.526C52.6377 14.4967 52.5644 14.482 52.4764 14.482C52.3884 14.482 52.3224 14.4967 52.2784 14.526C51.9117 14.7607 51.5671 15.3107 51.2444 16.176C50.9217 17.0413 50.7604 18.0313 50.7604 19.146C50.7604 20.73 51.1637 21.522 51.9704 21.522Z" fill="white"/>
</svg>
